<?xml version="1.0" encoding="UTF-8" standalone="no"?>
<!DOCTYPE svg PUBLIC "-//W3C//DTD SVG 1.1//EN"
 "http://www.w3.org/Graphics/SVG/1.1/DTD/svg11.dtd">
<!-- Generated by graphviz version 2.38.0 (20140413.2041)
 -->
<!-- Title: G Pages: 1 -->
<svg width="872pt" height="1829pt"
 viewBox="0.00 0.00 871.99 1829.03" xmlns="http://www.w3.org/2000/svg" xmlns:xlink="http://www.w3.org/1999/xlink">
<g id="graph0" class="graph" transform="scale(1 1) rotate(0) translate(4 1825.03)">
<title>G</title>
<polygon fill="white" stroke="none" points="-4,4 -4,-1825.03 867.985,-1825.03 867.985,4 -4,4"/>
<!-- n1 -->
<g id="node1" class="node"><title>n1</title>
<g id="a_node1"><a xlink:title="[./model/RNN2.lua]:30">
<ellipse fill="none" stroke="black" cx="260.018" cy="-1127.79" rx="83.6272" ry="25.4118"/>
<text text-anchor="middle" x="260.018" y="-1130.59" font-family="Times,serif" font-size="14.00">Node1</text>
<text text-anchor="middle" x="260.018" y="-1116.59" font-family="Times,serif" font-size="14.00">module = nn.Tanh</text>
</a>
</g>
</g>
<!-- n2 -->
<g id="node2" class="node"><title>n2</title>
<g id="a_node2"><a xlink:title="[[C]]:&#45;1">
<ellipse fill="none" stroke="black" cx="347.018" cy="-35.3553" rx="183.261" ry="35.2113"/>
<text text-anchor="middle" x="347.018" y="-45.1553" font-family="Times,serif" font-size="14.00">Node2</text>
<text text-anchor="start" x="225.348" y="-31.1553" font-family="Times,serif" font-size="14.00">input = {}</text>
<text text-anchor="middle" x="347.018" y="-17.1553" font-family="Times,serif" font-size="14.00">mapindex = {Node1,Node3,Node4,Node5}</text>
</a>
</g>
</g>
<!-- n1&#45;&gt;n2 -->
<g id="edge1" class="edge"><title>n1&#45;&gt;n2</title>
<path fill="none" stroke="black" d="M256.735,-1102.09C252.597,-1068.76 246.018,-1007.5 246.018,-954.97 246.018,-954.97 246.018,-954.97 246.018,-218.078 246.018,-165.114 279.201,-113.163 307.527,-78.4643"/>
<polygon fill="black" stroke="black" points="310.492,-80.375 314.226,-70.46 305.124,-75.8821 310.492,-80.375"/>
</g>
<!-- n19 -->
<g id="node19" class="node"><title>n19</title>
<g id="a_node19"><a xlink:title="[./model/RNN2.lua]:23">
<ellipse fill="none" stroke="black" cx="415.018" cy="-1040.88" rx="140.752" ry="25.4118"/>
<text text-anchor="middle" x="415.018" y="-1043.68" font-family="Times,serif" font-size="14.00">Node19</text>
<text text-anchor="middle" x="415.018" y="-1029.68" font-family="Times,serif" font-size="14.00">module = nn.Dropout(0.500000)</text>
</a>
</g>
</g>
<!-- n1&#45;&gt;n19 -->
<g id="edge25" class="edge"><title>n1&#45;&gt;n19</title>
<path fill="none" stroke="black" d="M299.532,-1105.15C318.908,-1094.53 342.493,-1081.61 363.286,-1070.22"/>
<polygon fill="black" stroke="black" points="365.222,-1073.15 372.311,-1065.28 361.859,-1067.01 365.222,-1073.15"/>
</g>
<!-- n3 -->
<g id="node3" class="node"><title>n3</title>
<g id="a_node3"><a xlink:title="[./model/RNN2.lua]:30">
<ellipse fill="none" stroke="black" cx="497.018" cy="-760.347" rx="83.6272" ry="25.4118"/>
<text text-anchor="middle" x="497.018" y="-763.147" font-family="Times,serif" font-size="14.00">Node3</text>
<text text-anchor="middle" x="497.018" y="-749.147" font-family="Times,serif" font-size="14.00">module = nn.Tanh</text>
</a>
</g>
</g>
<!-- n3&#45;&gt;n2 -->
<g id="edge2" class="edge"><title>n3&#45;&gt;n2</title>
<path fill="none" stroke="black" d="M436.128,-742.882C411.491,-733.524 384.55,-719.45 366.018,-698.891 331,-660.046 328.018,-639.823 328.018,-587.524 328.018,-587.524 328.018,-587.524 328.018,-218.078 328.018,-171.163 334.36,-117.801 339.715,-81.1018"/>
<polygon fill="black" stroke="black" points="343.247,-81.1508 341.266,-70.7429 336.324,-80.1148 343.247,-81.1508"/>
</g>
<!-- n21 -->
<g id="node21" class="node"><title>n21</title>
<g id="a_node21"><a xlink:title="[./model/RNN2.lua]:23">
<ellipse fill="none" stroke="black" cx="516.018" cy="-673.436" rx="140.752" ry="25.4118"/>
<text text-anchor="middle" x="516.018" y="-676.236" font-family="Times,serif" font-size="14.00">Node21</text>
<text text-anchor="middle" x="516.018" y="-662.236" font-family="Times,serif" font-size="14.00">module = nn.Dropout(0.500000)</text>
</a>
</g>
</g>
<!-- n3&#45;&gt;n21 -->
<g id="edge27" class="edge"><title>n3&#45;&gt;n21</title>
<path fill="none" stroke="black" d="M502.513,-734.787C504.325,-726.69 506.375,-717.53 508.32,-708.838"/>
<polygon fill="black" stroke="black" points="511.766,-709.463 510.534,-698.94 504.935,-707.935 511.766,-709.463"/>
</g>
<!-- n4 -->
<g id="node4" class="node"><title>n4</title>
<g id="a_node4"><a xlink:title="[./model/RNN2.lua]:30">
<ellipse fill="none" stroke="black" cx="530.018" cy="-392.902" rx="83.6272" ry="25.4118"/>
<text text-anchor="middle" x="530.018" y="-395.702" font-family="Times,serif" font-size="14.00">Node4</text>
<text text-anchor="middle" x="530.018" y="-381.702" font-family="Times,serif" font-size="14.00">module = nn.Tanh</text>
</a>
</g>
</g>
<!-- n4&#45;&gt;n2 -->
<g id="edge3" class="edge"><title>n4&#45;&gt;n2</title>
<path fill="none" stroke="black" d="M460.462,-378.73C432.818,-369.942 403.303,-355.403 385.018,-331.446 355.745,-293.092 348.959,-153.575 347.43,-80.9629"/>
<polygon fill="black" stroke="black" points="350.925,-80.6884 347.24,-70.7551 343.927,-80.8184 350.925,-80.6884"/>
</g>
<!-- n16 -->
<g id="node16" class="node"><title>n16</title>
<g id="a_node16"><a xlink:title="[./model/RNN2.lua]:36">
<ellipse fill="none" stroke="black" cx="535.018" cy="-305.99" rx="140.752" ry="25.4118"/>
<text text-anchor="middle" x="535.018" y="-308.79" font-family="Times,serif" font-size="14.00">Node16</text>
<text text-anchor="middle" x="535.018" y="-294.79" font-family="Times,serif" font-size="14.00">module = nn.Dropout(0.500000)</text>
</a>
</g>
</g>
<!-- n4&#45;&gt;n16 -->
<g id="edge22" class="edge"><title>n4&#45;&gt;n16</title>
<path fill="none" stroke="black" d="M531.464,-367.342C531.936,-359.333 532.468,-350.284 532.975,-341.676"/>
<polygon fill="black" stroke="black" points="536.481,-341.683 533.575,-331.495 529.493,-341.272 536.481,-341.683"/>
</g>
<!-- n5 -->
<g id="node5" class="node"><title>n5</title>
<g id="a_node5"><a xlink:title="[./model/RNN2.lua]:38">
<ellipse fill="none" stroke="black" cx="518.018" cy="-132.167" rx="114.518" ry="25.4118"/>
<text text-anchor="middle" x="518.018" y="-134.967" font-family="Times,serif" font-size="14.00">Node5</text>
<text text-anchor="middle" x="518.018" y="-120.967" font-family="Times,serif" font-size="14.00">module = nn.LogSoftMax</text>
</a>
</g>
</g>
<!-- n5&#45;&gt;n2 -->
<g id="edge4" class="edge"><title>n5&#45;&gt;n2</title>
<path fill="none" stroke="black" d="M476.623,-108.215C458.028,-97.9054 435.601,-85.4703 414.667,-73.8637"/>
<polygon fill="black" stroke="black" points="416.246,-70.7368 405.803,-68.9487 412.851,-76.8588 416.246,-70.7368"/>
</g>
<!-- n6 -->
<g id="node6" class="node"><title>n6</title>
<g id="a_node6"><a xlink:title="[./model/RNN2.lua]:30">
<ellipse fill="none" stroke="black" cx="260.018" cy="-1224.6" rx="135.366" ry="35.2113"/>
<text text-anchor="middle" x="260.018" y="-1234.4" font-family="Times,serif" font-size="14.00">Node6</text>
<text text-anchor="start" x="172.429" y="-1220.4" font-family="Times,serif" font-size="14.00">module = nn.CAddTable</text>
<text text-anchor="middle" x="260.018" y="-1206.4" font-family="Times,serif" font-size="14.00">mapindex = {Node10,Node11}</text>
</a>
</g>
</g>
<!-- n6&#45;&gt;n1 -->
<g id="edge5" class="edge"><title>n6&#45;&gt;n1</title>
<path fill="none" stroke="black" d="M260.018,-1189.11C260.018,-1180.77 260.018,-1171.85 260.018,-1163.5"/>
<polygon fill="black" stroke="black" points="263.518,-1163.32 260.018,-1153.32 256.518,-1163.32 263.518,-1163.32"/>
</g>
<!-- n7 -->
<g id="node7" class="node"><title>n7</title>
<g id="a_node7"><a xlink:title="[./model/RNN2.lua]:30">
<ellipse fill="none" stroke="black" cx="497.018" cy="-857.159" rx="135.591" ry="35.2113"/>
<text text-anchor="middle" x="497.018" y="-866.959" font-family="Times,serif" font-size="14.00">Node7</text>
<text text-anchor="start" x="409.173" y="-852.959" font-family="Times,serif" font-size="14.00">module = nn.CAddTable</text>
<text text-anchor="middle" x="497.018" y="-838.959" font-family="Times,serif" font-size="14.00">mapindex = {Node12,Node13}</text>
</a>
</g>
</g>
<!-- n7&#45;&gt;n3 -->
<g id="edge6" class="edge"><title>n7&#45;&gt;n3</title>
<path fill="none" stroke="black" d="M497.018,-821.661C497.018,-813.322 497.018,-804.406 497.018,-796.057"/>
<polygon fill="black" stroke="black" points="500.518,-795.871 497.018,-785.871 493.518,-795.871 500.518,-795.871"/>
</g>
<!-- n8 -->
<g id="node8" class="node"><title>n8</title>
<g id="a_node8"><a xlink:title="[./model/RNN2.lua]:30">
<ellipse fill="none" stroke="black" cx="530.018" cy="-489.713" rx="135.591" ry="35.2113"/>
<text text-anchor="middle" x="530.018" y="-499.513" font-family="Times,serif" font-size="14.00">Node8</text>
<text text-anchor="start" x="442.173" y="-485.513" font-family="Times,serif" font-size="14.00">module = nn.CAddTable</text>
<text text-anchor="middle" x="530.018" y="-471.513" font-family="Times,serif" font-size="14.00">mapindex = {Node14,Node15}</text>
</a>
</g>
</g>
<!-- n8&#45;&gt;n4 -->
<g id="edge7" class="edge"><title>n8&#45;&gt;n4</title>
<path fill="none" stroke="black" d="M530.018,-454.216C530.018,-445.876 530.018,-436.96 530.018,-428.612"/>
<polygon fill="black" stroke="black" points="533.518,-428.426 530.018,-418.426 526.518,-428.426 533.518,-428.426"/>
</g>
<!-- n9 -->
<g id="node9" class="node"><title>n9</title>
<g id="a_node9"><a xlink:title="[./model/RNN2.lua]:37">
<ellipse fill="none" stroke="black" cx="527.018" cy="-219.078" rx="125.035" ry="25.4118"/>
<text text-anchor="middle" x="527.018" y="-221.878" font-family="Times,serif" font-size="14.00">Node9</text>
<text text-anchor="middle" x="527.018" y="-207.878" font-family="Times,serif" font-size="14.00">module = nn.Linear(10 &#45;&gt; 5)</text>
</a>
</g>
</g>
<!-- n9&#45;&gt;n5 -->
<g id="edge8" class="edge"><title>n9&#45;&gt;n5</title>
<path fill="none" stroke="black" d="M524.415,-193.518C523.566,-185.509 522.607,-176.46 521.694,-167.853"/>
<polygon fill="black" stroke="black" points="525.15,-167.247 520.615,-157.671 518.189,-167.985 525.15,-167.247"/>
</g>
<!-- n10 -->
<g id="node10" class="node"><title>n10</title>
<g id="a_node10"><a xlink:title="[./model/RNN2.lua]:28">
<ellipse fill="none" stroke="black" cx="125.018" cy="-1321.42" rx="125.035" ry="25.4118"/>
<text text-anchor="middle" x="125.018" y="-1324.22" font-family="Times,serif" font-size="14.00">Node10</text>
<text text-anchor="middle" x="125.018" y="-1310.22" font-family="Times,serif" font-size="14.00">module = nn.Linear(5 &#45;&gt; 10)</text>
</a>
</g>
</g>
<!-- n10&#45;&gt;n6 -->
<g id="edge9" class="edge"><title>n10&#45;&gt;n6</title>
<path fill="none" stroke="black" d="M158.736,-1296.74C172.968,-1286.74 189.899,-1274.85 205.806,-1263.68"/>
<polygon fill="black" stroke="black" points="207.839,-1266.53 214.011,-1257.91 203.816,-1260.8 207.839,-1266.53"/>
</g>
<!-- n11 -->
<g id="node11" class="node"><title>n11</title>
<g id="a_node11"><a xlink:title="[./model/RNN2.lua]:29">
<ellipse fill="none" stroke="black" cx="398.018" cy="-1321.42" rx="129.935" ry="25.4118"/>
<text text-anchor="middle" x="398.018" y="-1324.22" font-family="Times,serif" font-size="14.00">Node11</text>
<text text-anchor="middle" x="398.018" y="-1310.22" font-family="Times,serif" font-size="14.00">module = nn.Linear(10 &#45;&gt; 10)</text>
</a>
</g>
</g>
<!-- n11&#45;&gt;n6 -->
<g id="edge10" class="edge"><title>n11&#45;&gt;n6</title>
<path fill="none" stroke="black" d="M363.55,-1296.74C349.002,-1286.74 331.694,-1274.85 315.434,-1263.68"/>
<polygon fill="black" stroke="black" points="317.271,-1260.69 307.047,-1257.91 313.307,-1266.46 317.271,-1260.69"/>
</g>
<!-- n12 -->
<g id="node12" class="node"><title>n12</title>
<g id="a_node12"><a xlink:title="[./model/RNN2.lua]:28">
<ellipse fill="none" stroke="black" cx="420.018" cy="-953.97" rx="129.935" ry="25.4118"/>
<text text-anchor="middle" x="420.018" y="-956.77" font-family="Times,serif" font-size="14.00">Node12</text>
<text text-anchor="middle" x="420.018" y="-942.77" font-family="Times,serif" font-size="14.00">module = nn.Linear(10 &#45;&gt; 10)</text>
</a>
</g>
</g>
<!-- n12&#45;&gt;n7 -->
<g id="edge11" class="edge"><title>n12&#45;&gt;n7</title>
<path fill="none" stroke="black" d="M439.847,-928.553C446.879,-919.895 455.008,-909.886 462.889,-900.182"/>
<polygon fill="black" stroke="black" points="465.834,-902.108 469.421,-892.139 460.4,-897.695 465.834,-902.108"/>
</g>
<!-- n13 -->
<g id="node13" class="node"><title>n13</title>
<g id="a_node13"><a xlink:title="[./model/RNN2.lua]:29">
<ellipse fill="none" stroke="black" cx="570.018" cy="-1224.6" rx="129.935" ry="25.4118"/>
<text text-anchor="middle" x="570.018" y="-1227.4" font-family="Times,serif" font-size="14.00">Node13</text>
<text text-anchor="middle" x="570.018" y="-1213.4" font-family="Times,serif" font-size="14.00">module = nn.Linear(10 &#45;&gt; 10)</text>
</a>
</g>
</g>
<!-- n13&#45;&gt;n7 -->
<g id="edge12" class="edge"><title>n13&#45;&gt;n7</title>
<path fill="none" stroke="black" d="M574.67,-1199.06C583.399,-1146.85 598.04,-1021.94 559.018,-928.514 554.65,-918.057 548.074,-908.084 540.813,-899.107"/>
<polygon fill="black" stroke="black" points="543.454,-896.81 534.294,-891.486 538.134,-901.36 543.454,-896.81"/>
</g>
<!-- n14 -->
<g id="node14" class="node"><title>n14</title>
<g id="a_node14"><a xlink:title="[./model/RNN2.lua]:28">
<ellipse fill="none" stroke="black" cx="521.018" cy="-586.524" rx="129.935" ry="25.4118"/>
<text text-anchor="middle" x="521.018" y="-589.324" font-family="Times,serif" font-size="14.00">Node14</text>
<text text-anchor="middle" x="521.018" y="-575.324" font-family="Times,serif" font-size="14.00">module = nn.Linear(10 &#45;&gt; 10)</text>
</a>
</g>
</g>
<!-- n14&#45;&gt;n8 -->
<g id="edge13" class="edge"><title>n14&#45;&gt;n8</title>
<path fill="none" stroke="black" d="M523.382,-560.613C524.124,-552.805 524.965,-543.938 525.795,-535.202"/>
<polygon fill="black" stroke="black" points="529.295,-535.366 526.755,-525.08 522.326,-534.704 529.295,-535.366"/>
</g>
<!-- n15 -->
<g id="node15" class="node"><title>n15</title>
<g id="a_node15"><a xlink:title="[./model/RNN2.lua]:29">
<ellipse fill="none" stroke="black" cx="734.018" cy="-1321.42" rx="129.935" ry="25.4118"/>
<text text-anchor="middle" x="734.018" y="-1324.22" font-family="Times,serif" font-size="14.00">Node15</text>
<text text-anchor="middle" x="734.018" y="-1310.22" font-family="Times,serif" font-size="14.00">module = nn.Linear(10 &#45;&gt; 10)</text>
</a>
</g>
</g>
<!-- n15&#45;&gt;n8 -->
<g id="edge14" class="edge"><title>n15&#45;&gt;n8</title>
<path fill="none" stroke="black" d="M733.179,-1295.92C732.006,-1259.48 730.018,-1188.85 730.018,-1128.79 730.018,-1128.79 730.018,-1128.79 730.018,-672.436 730.018,-603.967 665.018,-554.505 609.129,-524.631"/>
<polygon fill="black" stroke="black" points="610.735,-521.521 600.249,-520.004 607.501,-527.729 610.735,-521.521"/>
</g>
<!-- n16&#45;&gt;n9 -->
<g id="edge15" class="edge"><title>n16&#45;&gt;n9</title>
<path fill="none" stroke="black" d="M532.704,-280.43C531.949,-272.421 531.097,-263.372 530.286,-254.764"/>
<polygon fill="black" stroke="black" points="533.749,-254.211 529.326,-244.583 526.78,-254.867 533.749,-254.211"/>
</g>
<!-- n17 -->
<g id="node17" class="node"><title>n17</title>
<g id="a_node17"><a xlink:title="[./model/RNN2.lua]:19">
<ellipse fill="none" stroke="black" cx="127.018" cy="-1408.33" rx="82.7642" ry="25.4118"/>
<text text-anchor="middle" x="127.018" y="-1411.13" font-family="Times,serif" font-size="14.00">Node17</text>
<text text-anchor="middle" x="127.018" y="-1397.13" font-family="Times,serif" font-size="14.00">module = OneHot</text>
</a>
</g>
</g>
<!-- n17&#45;&gt;n10 -->
<g id="edge16" class="edge"><title>n17&#45;&gt;n10</title>
<path fill="none" stroke="black" d="M126.439,-1382.77C126.251,-1374.76 126.037,-1365.71 125.835,-1357.1"/>
<polygon fill="black" stroke="black" points="129.33,-1356.83 125.595,-1346.92 122.331,-1357 129.33,-1356.83"/>
</g>
<!-- n18 -->
<g id="node18" class="node"><title>n18</title>
<g id="a_node18"><a xlink:title="[./model/RNN2.lua]:9">
<ellipse fill="none" stroke="black" cx="358.018" cy="-1505.14" rx="94.9112" ry="25.4118"/>
<text text-anchor="middle" x="358.018" y="-1507.94" font-family="Times,serif" font-size="14.00">Node18</text>
<text text-anchor="middle" x="358.018" y="-1493.94" font-family="Times,serif" font-size="14.00">module = nn.Identity</text>
</a>
</g>
</g>
<!-- n18&#45;&gt;n11 -->
<g id="edge17" class="edge"><title>n18&#45;&gt;n11</title>
<path fill="none" stroke="black" d="M363.412,-1479.63C370.361,-1448.06 382.48,-1393 390.375,-1357.13"/>
<polygon fill="black" stroke="black" points="393.849,-1357.63 392.581,-1347.12 387.013,-1356.13 393.849,-1357.63"/>
</g>
<!-- n19&#45;&gt;n12 -->
<g id="edge18" class="edge"><title>n19&#45;&gt;n12</title>
<path fill="none" stroke="black" d="M416.464,-1015.32C416.936,-1007.31 417.468,-998.264 417.975,-989.656"/>
<polygon fill="black" stroke="black" points="421.481,-989.663 418.575,-979.474 414.493,-989.251 421.481,-989.663"/>
</g>
<!-- n20 -->
<g id="node20" class="node"><title>n20</title>
<g id="a_node20"><a xlink:title="[./model/RNN2.lua]:9">
<ellipse fill="none" stroke="black" cx="565.018" cy="-1505.14" rx="94.9112" ry="25.4118"/>
<text text-anchor="middle" x="565.018" y="-1507.94" font-family="Times,serif" font-size="14.00">Node20</text>
<text text-anchor="middle" x="565.018" y="-1493.94" font-family="Times,serif" font-size="14.00">module = nn.Identity</text>
</a>
</g>
</g>
<!-- n20&#45;&gt;n13 -->
<g id="edge19" class="edge"><title>n20&#45;&gt;n13</title>
<path fill="none" stroke="black" d="M565.461,-1479.42C566.353,-1429.76 568.363,-1317.77 569.389,-1260.6"/>
<polygon fill="black" stroke="black" points="572.895,-1260.33 569.575,-1250.27 565.896,-1260.2 572.895,-1260.33"/>
</g>
<!-- n21&#45;&gt;n14 -->
<g id="edge20" class="edge"><title>n21&#45;&gt;n14</title>
<path fill="none" stroke="black" d="M517.464,-647.876C517.936,-639.867 518.468,-630.818 518.975,-622.21"/>
<polygon fill="black" stroke="black" points="522.481,-622.217 519.575,-612.029 515.493,-621.806 522.481,-622.217"/>
</g>
<!-- n22 -->
<g id="node22" class="node"><title>n22</title>
<g id="a_node22"><a xlink:title="[./model/RNN2.lua]:9">
<ellipse fill="none" stroke="black" cx="747.018" cy="-1408.33" rx="94.9112" ry="25.4118"/>
<text text-anchor="middle" x="747.018" y="-1411.13" font-family="Times,serif" font-size="14.00">Node22</text>
<text text-anchor="middle" x="747.018" y="-1397.13" font-family="Times,serif" font-size="14.00">module = nn.Identity</text>
</a>
</g>
</g>
<!-- n22&#45;&gt;n15 -->
<g id="edge21" class="edge"><title>n22&#45;&gt;n15</title>
<path fill="none" stroke="black" d="M743.258,-1382.77C742.018,-1374.67 740.616,-1365.51 739.285,-1356.82"/>
<polygon fill="black" stroke="black" points="742.743,-1356.28 737.769,-1346.92 735.823,-1357.33 742.743,-1356.28"/>
</g>
<!-- n23 -->
<g id="node23" class="node"><title>n23</title>
<g id="a_node23"><a xlink:title="[./model/RNN2.lua]:7">
<ellipse fill="none" stroke="black" cx="143.018" cy="-1505.14" rx="94.9112" ry="25.4118"/>
<text text-anchor="middle" x="143.018" y="-1507.94" font-family="Times,serif" font-size="14.00">Node23</text>
<text text-anchor="middle" x="143.018" y="-1493.94" font-family="Times,serif" font-size="14.00">module = nn.Identity</text>
</a>
</g>
</g>
<!-- n23&#45;&gt;n17 -->
<g id="edge23" class="edge"><title>n23&#45;&gt;n17</title>
<path fill="none" stroke="black" d="M138.814,-1479.23C136.995,-1468.45 134.835,-1455.65 132.864,-1443.97"/>
<polygon fill="black" stroke="black" points="136.309,-1443.35 131.193,-1434.07 129.406,-1444.51 136.309,-1443.35"/>
</g>
<!-- n24 -->
<g id="node24" class="node"><title>n24</title>
<g id="a_node24"><a xlink:title="[[C]]:&#45;1&#45;2">
<ellipse fill="none" stroke="black" cx="369.018" cy="-1611.85" rx="71.1496" ry="35.2113"/>
<text text-anchor="middle" x="369.018" y="-1621.65" font-family="Times,serif" font-size="14.00">Node24</text>
<text text-anchor="start" x="326.584" y="-1607.65" font-family="Times,serif" font-size="14.00">input = {}</text>
<text text-anchor="middle" x="369.018" y="-1593.65" font-family="Times,serif" font-size="14.00">selectindex = 2</text>
</a>
</g>
</g>
<!-- n24&#45;&gt;n18 -->
<g id="edge24" class="edge"><title>n24&#45;&gt;n18</title>
<path fill="none" stroke="black" d="M365.385,-1576.27C364.188,-1564.87 362.856,-1552.19 361.657,-1540.78"/>
<polygon fill="black" stroke="black" points="365.128,-1540.32 360.602,-1530.74 358.166,-1541.05 365.128,-1540.32"/>
</g>
<!-- n25 -->
<g id="node25" class="node"><title>n25</title>
<g id="a_node25"><a xlink:title="[[C]]:&#45;1&#45;3">
<ellipse fill="none" stroke="black" cx="553.018" cy="-1611.85" rx="71.1496" ry="35.2113"/>
<text text-anchor="middle" x="553.018" y="-1621.65" font-family="Times,serif" font-size="14.00">Node25</text>
<text text-anchor="start" x="510.584" y="-1607.65" font-family="Times,serif" font-size="14.00">input = {}</text>
<text text-anchor="middle" x="553.018" y="-1593.65" font-family="Times,serif" font-size="14.00">selectindex = 3</text>
</a>
</g>
</g>
<!-- n25&#45;&gt;n20 -->
<g id="edge26" class="edge"><title>n25&#45;&gt;n20</title>
<path fill="none" stroke="black" d="M556.98,-1576.27C558.287,-1564.87 559.74,-1552.19 561.047,-1540.78"/>
<polygon fill="black" stroke="black" points="564.537,-1541.07 562.198,-1530.74 557.583,-1540.28 564.537,-1541.07"/>
</g>
<!-- n26 -->
<g id="node26" class="node"><title>n26</title>
<g id="a_node26"><a xlink:title="[[C]]:&#45;1&#45;4">
<ellipse fill="none" stroke="black" cx="749.018" cy="-1505.14" rx="71.1496" ry="35.2113"/>
<text text-anchor="middle" x="749.018" y="-1514.94" font-family="Times,serif" font-size="14.00">Node26</text>
<text text-anchor="start" x="706.584" y="-1500.94" font-family="Times,serif" font-size="14.00">input = {}</text>
<text text-anchor="middle" x="749.018" y="-1486.94" font-family="Times,serif" font-size="14.00">selectindex = 4</text>
</a>
</g>
</g>
<!-- n26&#45;&gt;n22 -->
<g id="edge28" class="edge"><title>n26&#45;&gt;n22</title>
<path fill="none" stroke="black" d="M748.29,-1469.64C748.114,-1461.3 747.926,-1452.39 747.75,-1444.04"/>
<polygon fill="black" stroke="black" points="751.245,-1443.78 747.535,-1433.85 744.247,-1443.92 751.245,-1443.78"/>
</g>
<!-- n27 -->
<g id="node27" class="node"><title>n27</title>
<g id="a_node27"><a xlink:title="[[C]]:&#45;1&#45;1">
<ellipse fill="none" stroke="black" cx="171.018" cy="-1611.85" rx="71.1496" ry="35.2113"/>
<text text-anchor="middle" x="171.018" y="-1621.65" font-family="Times,serif" font-size="14.00">Node27</text>
<text text-anchor="start" x="128.584" y="-1607.65" font-family="Times,serif" font-size="14.00">input = {}</text>
<text text-anchor="middle" x="171.018" y="-1593.65" font-family="Times,serif" font-size="14.00">selectindex = 1</text>
</a>
</g>
</g>
<!-- n27&#45;&gt;n23 -->
<g id="edge29" class="edge"><title>n27&#45;&gt;n23</title>
<path fill="none" stroke="black" d="M161.849,-1576.56C158.741,-1564.94 155.27,-1551.96 152.163,-1540.34"/>
<polygon fill="black" stroke="black" points="155.509,-1539.3 149.545,-1530.55 148.747,-1541.11 155.509,-1539.3"/>
</g>
<!-- n28 -->
<g id="node28" class="node"><title>n28</title>
<g id="a_node28"><a xlink:title="[[C]]:&#45;1&#45;mnode">
<ellipse fill="none" stroke="black" cx="449.018" cy="-1708.66" rx="81.6087" ry="25.4118"/>
<text text-anchor="middle" x="449.018" y="-1711.46" font-family="Times,serif" font-size="14.00">Node28</text>
<text text-anchor="middle" x="449.018" y="-1697.46" font-family="Times,serif" font-size="14.00">nSplitOutputs = 4</text>
</a>
</g>
</g>
<!-- n28&#45;&gt;n24 -->
<g id="edge30" class="edge"><title>n28&#45;&gt;n24</title>
<path fill="none" stroke="black" d="M428.83,-1683.74C420.785,-1674.2 411.309,-1662.97 402.301,-1652.29"/>
<polygon fill="black" stroke="black" points="404.975,-1650.04 395.851,-1644.65 399.625,-1654.55 404.975,-1650.04"/>
</g>
<!-- n28&#45;&gt;n25 -->
<g id="edge31" class="edge"><title>n28&#45;&gt;n25</title>
<path fill="none" stroke="black" d="M474.726,-1684.22C485.983,-1673.96 499.472,-1661.66 512.056,-1650.19"/>
<polygon fill="black" stroke="black" points="514.715,-1652.5 519.747,-1643.18 509.999,-1647.33 514.715,-1652.5"/>
</g>
<!-- n28&#45;&gt;n26 -->
<g id="edge32" class="edge"><title>n28&#45;&gt;n26</title>
<path fill="none" stroke="black" d="M517.882,-1694.79C554.361,-1685.67 598.606,-1670.75 633.018,-1647.2 671.05,-1621.18 703.287,-1579.24 724.05,-1547.84"/>
<polygon fill="black" stroke="black" points="727.093,-1549.58 729.597,-1539.29 721.22,-1545.77 727.093,-1549.58"/>
</g>
<!-- n28&#45;&gt;n27 -->
<g id="edge33" class="edge"><title>n28&#45;&gt;n27</title>
<path fill="none" stroke="black" d="M395.417,-1689.38C350.838,-1674.18 287.126,-1652.45 238.973,-1636.02"/>
<polygon fill="black" stroke="black" points="239.848,-1632.63 229.253,-1632.71 237.588,-1639.25 239.848,-1632.63"/>
</g>
<!-- n29 -->
<g id="node29" class="node"><title>n29</title>
<g id="a_node29"><a xlink:title="[[C]]:&#45;1">
<ellipse fill="none" stroke="black" cx="449.018" cy="-1795.57" rx="51.8999" ry="25.4118"/>
<text text-anchor="middle" x="449.018" y="-1798.37" font-family="Times,serif" font-size="14.00">Node29</text>
<text text-anchor="middle" x="449.018" y="-1784.37" font-family="Times,serif" font-size="14.00">input = {}</text>
</a>
</g>
</g>
<!-- n29&#45;&gt;n28 -->
<g id="edge34" class="edge"><title>n29&#45;&gt;n28</title>
<path fill="none" stroke="black" d="M449.018,-1770.01C449.018,-1762 449.018,-1752.95 449.018,-1744.35"/>
<polygon fill="black" stroke="black" points="452.518,-1744.16 449.018,-1734.16 445.518,-1744.16 452.518,-1744.16"/>
</g>
</g>
</svg>
