<?xml version="1.0" encoding="UTF-8" standalone="no"?>
<!DOCTYPE svg PUBLIC "-//W3C//DTD SVG 1.1//EN"
 "http://www.w3.org/Graphics/SVG/1.1/DTD/svg11.dtd">
<!-- Generated by graphviz version 2.38.0 (20140413.2041)
 -->
<!-- Title: G Pages: 1 -->
<svg width="536pt" height="620pt"
 viewBox="0.00 0.00 535.99 619.98" xmlns="http://www.w3.org/2000/svg" xmlns:xlink="http://www.w3.org/1999/xlink">
<g id="graph0" class="graph" transform="scale(1 1) rotate(0) translate(4 615.98)">
<title>G</title>
<polygon fill="white" stroke="none" points="-4,4 -4,-615.98 531.985,-615.98 531.985,4 -4,4"/>
<!-- n1 -->
<g id="node1" class="node"><title>n1</title>
<g id="a_node1"><a xlink:title="[./model/RNN.lua]:17">
<ellipse fill="none" stroke="black" cx="265.967" cy="-112.368" rx="83.6272" ry="25.4118"/>
<text text-anchor="middle" x="265.967" y="-115.168" font-family="Times,serif" font-size="14.00">Node1</text>
<text text-anchor="middle" x="265.967" y="-101.168" font-family="Times,serif" font-size="14.00">module = nn.Tanh</text>
</a>
</g>
</g>
<!-- n2 -->
<g id="node2" class="node"><title>n2</title>
<g id="a_node2"><a xlink:title="[[C]]:&#45;1">
<ellipse fill="none" stroke="black" cx="265.967" cy="-25.4558" rx="51.8999" ry="25.4118"/>
<text text-anchor="middle" x="265.967" y="-28.2558" font-family="Times,serif" font-size="14.00">Node2</text>
<text text-anchor="middle" x="265.967" y="-14.2558" font-family="Times,serif" font-size="14.00">input = {}</text>
</a>
</g>
</g>
<!-- n1&#45;&gt;n2 -->
<g id="edge1" class="edge"><title>n1&#45;&gt;n2</title>
<path fill="none" stroke="black" d="M265.967,-86.8076C265.967,-78.7986 265.967,-69.7497 265.967,-61.1419"/>
<polygon fill="black" stroke="black" points="269.468,-60.9606 265.967,-50.9606 262.468,-60.9607 269.468,-60.9606"/>
</g>
<!-- n3 -->
<g id="node3" class="node"><title>n3</title>
<g id="a_node3"><a xlink:title="[./model/RNN.lua]:16">
<ellipse fill="none" stroke="black" cx="265.967" cy="-209.179" rx="125.792" ry="35.2113"/>
<text text-anchor="middle" x="265.967" y="-218.979" font-family="Times,serif" font-size="14.00">Node3</text>
<text text-anchor="start" x="185.122" y="-204.979" font-family="Times,serif" font-size="14.00">module = nn.CAddTable</text>
<text text-anchor="middle" x="265.967" y="-190.979" font-family="Times,serif" font-size="14.00">mapindex = {Node4,Node5}</text>
</a>
</g>
</g>
<!-- n3&#45;&gt;n1 -->
<g id="edge2" class="edge"><title>n3&#45;&gt;n1</title>
<path fill="none" stroke="black" d="M265.967,-173.681C265.967,-165.342 265.967,-156.426 265.967,-148.077"/>
<polygon fill="black" stroke="black" points="269.468,-147.892 265.967,-137.892 262.468,-147.892 269.468,-147.892"/>
</g>
<!-- n4 -->
<g id="node4" class="node"><title>n4</title>
<g id="a_node4"><a xlink:title="[./model/RNN.lua]:14">
<ellipse fill="none" stroke="black" cx="129.967" cy="-305.99" rx="129.935" ry="25.4118"/>
<text text-anchor="middle" x="129.967" y="-308.79" font-family="Times,serif" font-size="14.00">Node4</text>
<text text-anchor="middle" x="129.967" y="-294.79" font-family="Times,serif" font-size="14.00">module = nn.Linear(10 &#45;&gt; 10)</text>
</a>
</g>
</g>
<!-- n4&#45;&gt;n3 -->
<g id="edge3" class="edge"><title>n4&#45;&gt;n3</title>
<path fill="none" stroke="black" d="M163.935,-281.31C178.407,-271.221 195.649,-259.201 211.803,-247.939"/>
<polygon fill="black" stroke="black" points="213.93,-250.723 220.131,-242.133 209.926,-244.981 213.93,-250.723"/>
</g>
<!-- n5 -->
<g id="node5" class="node"><title>n5</title>
<g id="a_node5"><a xlink:title="[./model/RNN.lua]:15">
<ellipse fill="none" stroke="black" cx="402.967" cy="-305.99" rx="125.035" ry="25.4118"/>
<text text-anchor="middle" x="402.967" y="-308.79" font-family="Times,serif" font-size="14.00">Node5</text>
<text text-anchor="middle" x="402.967" y="-294.79" font-family="Times,serif" font-size="14.00">module = nn.Linear(3 &#45;&gt; 10)</text>
</a>
</g>
</g>
<!-- n5&#45;&gt;n3 -->
<g id="edge4" class="edge"><title>n5&#45;&gt;n3</title>
<path fill="none" stroke="black" d="M368.75,-281.31C354.172,-271.221 336.803,-259.201 320.53,-247.939"/>
<polygon fill="black" stroke="black" points="322.355,-244.946 312.141,-242.133 318.372,-250.702 322.355,-244.946"/>
</g>
<!-- n6 -->
<g id="node6" class="node"><title>n6</title>
<g id="a_node6"><a xlink:title="[[C]]:&#45;1&#45;1">
<ellipse fill="none" stroke="black" cx="157.967" cy="-402.801" rx="71.1496" ry="35.2113"/>
<text text-anchor="middle" x="157.967" y="-412.601" font-family="Times,serif" font-size="14.00">Node6</text>
<text text-anchor="start" x="115.533" y="-398.601" font-family="Times,serif" font-size="14.00">input = {}</text>
<text text-anchor="middle" x="157.967" y="-384.601" font-family="Times,serif" font-size="14.00">selectindex = 1</text>
</a>
</g>
</g>
<!-- n6&#45;&gt;n4 -->
<g id="edge5" class="edge"><title>n6&#45;&gt;n4</title>
<path fill="none" stroke="black" d="M147.859,-367.572C145.337,-359.032 142.632,-349.873 140.108,-341.328"/>
<polygon fill="black" stroke="black" points="143.44,-340.252 137.251,-331.653 136.727,-342.235 143.44,-340.252"/>
</g>
<!-- n7 -->
<g id="node7" class="node"><title>n7</title>
<g id="a_node7"><a xlink:title="[[C]]:&#45;1&#45;2">
<ellipse fill="none" stroke="black" cx="374.967" cy="-402.801" rx="71.1496" ry="35.2113"/>
<text text-anchor="middle" x="374.967" y="-412.601" font-family="Times,serif" font-size="14.00">Node7</text>
<text text-anchor="start" x="332.533" y="-398.601" font-family="Times,serif" font-size="14.00">input = {}</text>
<text text-anchor="middle" x="374.967" y="-384.601" font-family="Times,serif" font-size="14.00">selectindex = 2</text>
</a>
</g>
</g>
<!-- n7&#45;&gt;n5 -->
<g id="edge6" class="edge"><title>n7&#45;&gt;n5</title>
<path fill="none" stroke="black" d="M385.076,-367.572C387.598,-359.032 390.303,-349.873 392.827,-341.328"/>
<polygon fill="black" stroke="black" points="396.208,-342.235 395.684,-331.653 389.495,-340.252 396.208,-342.235"/>
</g>
<!-- n8 -->
<g id="node8" class="node"><title>n8</title>
<g id="a_node8"><a xlink:title="[[C]]:&#45;1&#45;mnode">
<ellipse fill="none" stroke="black" cx="237.967" cy="-499.612" rx="81.6087" ry="25.4118"/>
<text text-anchor="middle" x="237.967" y="-502.412" font-family="Times,serif" font-size="14.00">Node8</text>
<text text-anchor="middle" x="237.967" y="-488.412" font-family="Times,serif" font-size="14.00">nSplitOutputs = 2</text>
</a>
</g>
</g>
<!-- n8&#45;&gt;n6 -->
<g id="edge7" class="edge"><title>n8&#45;&gt;n6</title>
<path fill="none" stroke="black" d="M217.78,-474.687C209.735,-465.152 200.259,-453.922 191.251,-443.246"/>
<polygon fill="black" stroke="black" points="193.925,-440.988 184.801,-435.603 188.575,-445.503 193.925,-440.988"/>
</g>
<!-- n8&#45;&gt;n7 -->
<g id="edge8" class="edge"><title>n8&#45;&gt;n7</title>
<path fill="none" stroke="black" d="M270.435,-476.143C287.04,-464.652 307.595,-450.427 326.072,-437.64"/>
<polygon fill="black" stroke="black" points="328.162,-440.449 334.393,-431.881 324.178,-434.693 328.162,-440.449"/>
</g>
<!-- n9 -->
<g id="node9" class="node"><title>n9</title>
<g id="a_node9"><a xlink:title="[[C]]:&#45;1">
<ellipse fill="none" stroke="black" cx="237.967" cy="-586.524" rx="51.8999" ry="25.4118"/>
<text text-anchor="middle" x="237.967" y="-589.324" font-family="Times,serif" font-size="14.00">Node9</text>
<text text-anchor="middle" x="237.967" y="-575.324" font-family="Times,serif" font-size="14.00">input = {}</text>
</a>
</g>
</g>
<!-- n9&#45;&gt;n8 -->
<g id="edge9" class="edge"><title>n9&#45;&gt;n8</title>
<path fill="none" stroke="black" d="M237.967,-560.964C237.967,-552.955 237.967,-543.906 237.967,-535.298"/>
<polygon fill="black" stroke="black" points="241.468,-535.117 237.967,-525.117 234.468,-535.117 241.468,-535.117"/>
</g>
</g>
</svg>
