<?xml version="1.0" encoding="UTF-8" standalone="no"?>
<!DOCTYPE svg PUBLIC "-//W3C//DTD SVG 1.1//EN"
 "http://www.w3.org/Graphics/SVG/1.1/DTD/svg11.dtd">
<!-- Generated by graphviz version 2.38.0 (20140413.2041)
 -->
<!-- Title: G Pages: 1 -->
<svg width="258pt" height="320pt"
 viewBox="0.00 0.00 258.04 319.65" xmlns="http://www.w3.org/2000/svg" xmlns:xlink="http://www.w3.org/1999/xlink">
<g id="graph0" class="graph" transform="scale(1 1) rotate(0) translate(4 315.647)">
<title>G</title>
<polygon fill="white" stroke="none" points="-4,4 -4,-315.647 254.035,-315.647 254.035,4 -4,4"/>
<!-- n1 -->
<g id="node1" class="node"><title>n1</title>
<g id="a_node1"><a xlink:title="[./model/RNN.lua]:11">
<ellipse fill="none" stroke="black" cx="125.018" cy="-112.368" rx="98.6254" ry="25.4118"/>
<text text-anchor="middle" x="125.018" y="-115.168" font-family="Times,serif" font-size="14.00">Node1</text>
<text text-anchor="middle" x="125.018" y="-101.168" font-family="Times,serif" font-size="14.00">module = nn.SoftMax</text>
</a>
</g>
</g>
<!-- n2 -->
<g id="node2" class="node"><title>n2</title>
<g id="a_node2"><a xlink:title="[[C]]:&#45;1">
<ellipse fill="none" stroke="black" cx="125.018" cy="-25.4558" rx="51.8999" ry="25.4118"/>
<text text-anchor="middle" x="125.018" y="-28.2558" font-family="Times,serif" font-size="14.00">Node2</text>
<text text-anchor="middle" x="125.018" y="-14.2558" font-family="Times,serif" font-size="14.00">input = {}</text>
</a>
</g>
</g>
<!-- n1&#45;&gt;n2 -->
<g id="edge1" class="edge"><title>n1&#45;&gt;n2</title>
<path fill="none" stroke="black" d="M125.018,-86.8076C125.018,-78.7986 125.018,-69.7497 125.018,-61.1419"/>
<polygon fill="black" stroke="black" points="128.518,-60.9606 125.018,-50.9606 121.518,-60.9607 128.518,-60.9606"/>
</g>
<!-- n3 -->
<g id="node3" class="node"><title>n3</title>
<g id="a_node3"><a xlink:title="[./model/RNN.lua]:10">
<ellipse fill="none" stroke="black" cx="125.018" cy="-199.279" rx="125.035" ry="25.4118"/>
<text text-anchor="middle" x="125.018" y="-202.079" font-family="Times,serif" font-size="14.00">Node3</text>
<text text-anchor="middle" x="125.018" y="-188.079" font-family="Times,serif" font-size="14.00">module = nn.Linear(10 &#45;&gt; 3)</text>
</a>
</g>
</g>
<!-- n3&#45;&gt;n1 -->
<g id="edge2" class="edge"><title>n3&#45;&gt;n1</title>
<path fill="none" stroke="black" d="M125.018,-173.719C125.018,-165.71 125.018,-156.661 125.018,-148.054"/>
<polygon fill="black" stroke="black" points="128.518,-147.872 125.018,-137.872 121.518,-147.872 128.518,-147.872"/>
</g>
<!-- n4 -->
<g id="node4" class="node"><title>n4</title>
<g id="a_node4"><a xlink:title="[[C]]:&#45;1">
<ellipse fill="none" stroke="black" cx="125.018" cy="-286.191" rx="51.8999" ry="25.4118"/>
<text text-anchor="middle" x="125.018" y="-288.991" font-family="Times,serif" font-size="14.00">Node4</text>
<text text-anchor="middle" x="125.018" y="-274.991" font-family="Times,serif" font-size="14.00">input = {}</text>
</a>
</g>
</g>
<!-- n4&#45;&gt;n3 -->
<g id="edge3" class="edge"><title>n4&#45;&gt;n3</title>
<path fill="none" stroke="black" d="M125.018,-260.631C125.018,-252.622 125.018,-243.573 125.018,-234.965"/>
<polygon fill="black" stroke="black" points="128.518,-234.784 125.018,-224.784 121.518,-234.784 128.518,-234.784"/>
</g>
</g>
</svg>
