<?xml version="1.0" encoding="UTF-8" standalone="no"?>
<!DOCTYPE svg PUBLIC "-//W3C//DTD SVG 1.1//EN"
 "http://www.w3.org/Graphics/SVG/1.1/DTD/svg11.dtd">
<!-- Generated by graphviz version 2.38.0 (20140413.2041)
 -->
<!-- Title: G Pages: 1 -->
<svg width="540pt" height="643pt"
 viewBox="0.00 0.00 540.39 642.61" xmlns="http://www.w3.org/2000/svg" xmlns:xlink="http://www.w3.org/1999/xlink">
<g id="graph0" class="graph" transform="scale(1 1) rotate(0) translate(4 638.607)">
<title>G</title>
<polygon fill="white" stroke="none" points="-4,4 -4,-638.607 536.387,-638.607 536.387,4 -4,4"/>
<!-- n1 -->
<g id="node1" class="node"><title>n1</title>
<g id="a_node1"><a xlink:title="[[string &quot;h_tanh = nn.Tanh()(h_sum)&quot;]]:1">
<ellipse fill="none" stroke="black" cx="265.693" cy="-116.61" rx="84.2917" ry="26.7407"/>
<text text-anchor="middle" x="265.693" y="-120.41" font-family="Times,serif" font-size="14.00">Node1</text>
<text text-anchor="middle" x="265.693" y="-105.41" font-family="Times,serif" font-size="14.00">module = nn.Tanh</text>
</a>
</g>
</g>
<!-- n2 -->
<g id="node2" class="node"><title>n2</title>
<g id="a_node2"><a xlink:title="[[C]]:&#45;1">
<ellipse fill="none" stroke="black" cx="265.693" cy="-26.8701" rx="52.1524" ry="26.7407"/>
<text text-anchor="middle" x="265.693" y="-30.6701" font-family="Times,serif" font-size="14.00">Node2</text>
<text text-anchor="middle" x="265.693" y="-15.6701" font-family="Times,serif" font-size="14.00">input = {}</text>
</a>
</g>
</g>
<!-- n1&#45;&gt;n2 -->
<g id="edge1" class="edge"><title>n1&#45;&gt;n2</title>
<path fill="none" stroke="black" d="M265.693,-89.2852C265.693,-81.3185 265.693,-72.4275 265.693,-63.9391"/>
<polygon fill="black" stroke="black" points="269.194,-63.874 265.693,-53.874 262.194,-63.8741 269.194,-63.874"/>
</g>
<!-- n3 -->
<g id="node3" class="node"><title>n3</title>
<g id="a_node3"><a xlink:title="[[string &quot;h_sum = nn.CAddTable()({h_linH, h_linW})&quot;]]:1">
<ellipse fill="none" stroke="black" cx="265.693" cy="-216.957" rx="124.402" ry="37.4533"/>
<text text-anchor="middle" x="265.693" y="-228.257" font-family="Times,serif" font-size="14.00">Node3</text>
<text text-anchor="start" x="185.693" y="-213.257" font-family="Times,serif" font-size="14.00">module = nn.CAddTable</text>
<text text-anchor="middle" x="265.693" y="-198.257" font-family="Times,serif" font-size="14.00">mapindex = {Node4,Node5}</text>
</a>
</g>
</g>
<!-- n3&#45;&gt;n1 -->
<g id="edge2" class="edge"><title>n3&#45;&gt;n1</title>
<path fill="none" stroke="black" d="M265.693,-179.336C265.693,-170.965 265.693,-162.074 265.693,-153.725"/>
<polygon fill="black" stroke="black" points="269.194,-153.518 265.693,-143.518 262.194,-153.518 269.194,-153.518"/>
</g>
<!-- n4 -->
<g id="node4" class="node"><title>n4</title>
<g id="a_node4"><a xlink:title="[[string &quot;h_linH = nn.Linear(dimh, dimh)()&quot;]]:1">
<ellipse fill="none" stroke="black" cx="128.693" cy="-317.304" rx="128.887" ry="26.7407"/>
<text text-anchor="middle" x="128.693" y="-321.104" font-family="Times,serif" font-size="14.00">Node4</text>
<text text-anchor="middle" x="128.693" y="-306.104" font-family="Times,serif" font-size="14.00">module = nn.Linear(10 &#45;&gt; 10)</text>
</a>
</g>
</g>
<!-- n4&#45;&gt;n3 -->
<g id="edge3" class="edge"><title>n4&#45;&gt;n3</title>
<path fill="none" stroke="black" d="M163.619,-291.232C177.863,-281.007 194.681,-268.934 210.512,-257.57"/>
<polygon fill="black" stroke="black" points="212.599,-260.38 218.681,-251.705 208.517,-254.693 212.599,-260.38"/>
</g>
<!-- n5 -->
<g id="node5" class="node"><title>n5</title>
<g id="a_node5"><a xlink:title="[[string &quot;h_linW = nn.Linear(dimx, dimh)()&quot;]]:1">
<ellipse fill="none" stroke="black" cx="403.693" cy="-317.304" rx="128.887" ry="26.7407"/>
<text text-anchor="middle" x="403.693" y="-321.104" font-family="Times,serif" font-size="14.00">Node5</text>
<text text-anchor="middle" x="403.693" y="-306.104" font-family="Times,serif" font-size="14.00">module = nn.Linear(31 &#45;&gt; 10)</text>
</a>
</g>
</g>
<!-- n5&#45;&gt;n3 -->
<g id="edge4" class="edge"><title>n5&#45;&gt;n3</title>
<path fill="none" stroke="black" d="M368.513,-291.232C354.165,-281.007 337.224,-268.934 321.278,-257.57"/>
<polygon fill="black" stroke="black" points="323.224,-254.658 313.049,-251.705 319.161,-260.359 323.224,-254.658"/>
</g>
<!-- n6 -->
<g id="node6" class="node"><title>n6</title>
<g id="a_node6"><a xlink:title="[[C]]:&#45;1&#45;1">
<ellipse fill="none" stroke="black" cx="157.693" cy="-417.65" rx="70.922" ry="37.4533"/>
<text text-anchor="middle" x="157.693" y="-428.95" font-family="Times,serif" font-size="14.00">Node6</text>
<text text-anchor="start" x="115.693" y="-413.95" font-family="Times,serif" font-size="14.00">input = {}</text>
<text text-anchor="middle" x="157.693" y="-398.95" font-family="Times,serif" font-size="14.00">selectindex = 1</text>
</a>
</g>
</g>
<!-- n6&#45;&gt;n4 -->
<g id="edge5" class="edge"><title>n6&#45;&gt;n4</title>
<path fill="none" stroke="black" d="M147.06,-380.588C144.503,-371.92 141.774,-362.665 139.223,-354.012"/>
<polygon fill="black" stroke="black" points="142.516,-352.805 136.331,-344.203 135.802,-354.785 142.516,-352.805"/>
</g>
<!-- n7 -->
<g id="node7" class="node"><title>n7</title>
<g id="a_node7"><a xlink:title="[[C]]:&#45;1&#45;2">
<ellipse fill="none" stroke="black" cx="374.693" cy="-417.65" rx="70.922" ry="37.4533"/>
<text text-anchor="middle" x="374.693" y="-428.95" font-family="Times,serif" font-size="14.00">Node7</text>
<text text-anchor="start" x="332.693" y="-413.95" font-family="Times,serif" font-size="14.00">input = {}</text>
<text text-anchor="middle" x="374.693" y="-398.95" font-family="Times,serif" font-size="14.00">selectindex = 2</text>
</a>
</g>
</g>
<!-- n7&#45;&gt;n5 -->
<g id="edge6" class="edge"><title>n7&#45;&gt;n5</title>
<path fill="none" stroke="black" d="M385.327,-380.588C387.883,-371.92 390.612,-362.665 393.164,-354.012"/>
<polygon fill="black" stroke="black" points="396.585,-354.785 396.056,-344.203 389.871,-352.805 396.585,-354.785"/>
</g>
<!-- n8 -->
<g id="node8" class="node"><title>n8</title>
<g id="a_node8"><a xlink:title="[[C]]:&#45;1&#45;mnode">
<ellipse fill="none" stroke="black" cx="236.693" cy="-517.997" rx="80.7205" ry="26.7407"/>
<text text-anchor="middle" x="236.693" y="-521.797" font-family="Times,serif" font-size="14.00">Node8</text>
<text text-anchor="middle" x="236.693" y="-506.797" font-family="Times,serif" font-size="14.00">nSplitOutputs = 2</text>
</a>
</g>
</g>
<!-- n8&#45;&gt;n6 -->
<g id="edge7" class="edge"><title>n8&#45;&gt;n6</title>
<path fill="none" stroke="black" d="M216.554,-491.926C208.904,-482.402 199.967,-471.276 191.401,-460.613"/>
<polygon fill="black" stroke="black" points="193.942,-458.187 184.951,-452.583 188.485,-462.571 193.942,-458.187"/>
</g>
<!-- n8&#45;&gt;n7 -->
<g id="edge8" class="edge"><title>n8&#45;&gt;n7</title>
<path fill="none" stroke="black" d="M269.748,-493.441C286.274,-481.663 306.618,-467.165 324.98,-454.079"/>
<polygon fill="black" stroke="black" points="327.144,-456.835 333.256,-448.181 323.081,-451.134 327.144,-456.835"/>
</g>
<!-- n9 -->
<g id="node9" class="node"><title>n9</title>
<g id="a_node9"><a xlink:title="[[C]]:&#45;1">
<ellipse fill="none" stroke="black" cx="236.693" cy="-607.737" rx="52.1524" ry="26.7407"/>
<text text-anchor="middle" x="236.693" y="-611.537" font-family="Times,serif" font-size="14.00">Node9</text>
<text text-anchor="middle" x="236.693" y="-596.537" font-family="Times,serif" font-size="14.00">input = {}</text>
</a>
</g>
</g>
<!-- n9&#45;&gt;n8 -->
<g id="edge9" class="edge"><title>n9&#45;&gt;n8</title>
<path fill="none" stroke="black" d="M236.693,-580.412C236.693,-572.445 236.693,-563.555 236.693,-555.066"/>
<polygon fill="black" stroke="black" points="240.194,-555.001 236.693,-545.001 233.194,-555.001 240.194,-555.001"/>
</g>
</g>
</svg>
