<?xml version="1.0" encoding="UTF-8" standalone="no"?>
<!DOCTYPE svg PUBLIC "-//W3C//DTD SVG 1.1//EN"
 "http://www.w3.org/Graphics/SVG/1.1/DTD/svg11.dtd">
<!-- Generated by graphviz version 2.38.0 (20140413.2041)
 -->
<!-- Title: G Pages: 1 -->
<svg width="1004pt" height="1086pt"
 viewBox="0.00 0.00 1004.41 1086.42" xmlns="http://www.w3.org/2000/svg" xmlns:xlink="http://www.w3.org/1999/xlink">
<g id="graph0" class="graph" transform="scale(1 1) rotate(0) translate(4 1082.42)">
<title>G</title>
<polygon fill="white" stroke="none" points="-4,4 -4,-1082.42 1000.41,-1082.42 1000.41,4 -4,4"/>
<!-- n1 -->
<g id="node1" class="node"><title>n1</title>
<g id="a_node1"><a xlink:title="[./model/RNN.lua]:31">
<ellipse fill="none" stroke="black" cx="190.705" cy="-132.167" rx="99.8201" ry="25.4118"/>
<text text-anchor="middle" x="190.705" y="-134.967" font-family="Times,serif" font-size="14.00">Node1</text>
<text text-anchor="middle" x="190.705" y="-120.967" font-family="Times,serif" font-size="14.00">module = nn.gModule</text>
</a>
</g>
</g>
<!-- n2 -->
<g id="node2" class="node"><title>n2</title>
<g id="a_node2"><a xlink:title="[[C]]:&#45;1">
<ellipse fill="none" stroke="black" cx="419.705" cy="-35.3553" rx="212.495" ry="35.2113"/>
<text text-anchor="middle" x="419.705" y="-45.1553" font-family="Times,serif" font-size="14.00">Node2</text>
<text text-anchor="start" x="277.624" y="-31.1553" font-family="Times,serif" font-size="14.00">input = {}</text>
<text text-anchor="middle" x="419.705" y="-17.1553" font-family="Times,serif" font-size="14.00">mapindex = {Node1,Node3,Node4,Node5,Node6}</text>
</a>
</g>
</g>
<!-- n1&#45;&gt;n2 -->
<g id="edge1" class="edge"><title>n1&#45;&gt;n2</title>
<path fill="none" stroke="black" d="M241.528,-110.125C268.396,-99.0007 302.124,-85.0368 332.986,-72.2592"/>
<polygon fill="black" stroke="black" points="334.56,-75.3955 342.461,-68.3364 331.882,-68.9279 334.56,-75.3955"/>
</g>
<!-- n3 -->
<g id="node3" class="node"><title>n3</title>
<g id="a_node3"><a xlink:title="[./model/RNN.lua]:31">
<ellipse fill="none" stroke="black" cx="326.705" cy="-442.399" rx="99.8201" ry="25.4118"/>
<text text-anchor="middle" x="326.705" y="-445.199" font-family="Times,serif" font-size="14.00">Node3</text>
<text text-anchor="middle" x="326.705" y="-431.199" font-family="Times,serif" font-size="14.00">module = nn.gModule</text>
</a>
</g>
</g>
<!-- n3&#45;&gt;n2 -->
<g id="edge2" class="edge"><title>n3&#45;&gt;n2</title>
<path fill="none" stroke="black" d="M332.313,-416.974C347.559,-350.574 389.929,-166.04 409.525,-80.6952"/>
<polygon fill="black" stroke="black" points="412.972,-81.3232 411.798,-70.7935 406.149,-79.7567 412.972,-81.3232"/>
</g>
<!-- n4 -->
<g id="node4" class="node"><title>n4</title>
<g id="a_node4"><a xlink:title="[./model/RNN.lua]:31">
<ellipse fill="none" stroke="black" cx="470.705" cy="-335.688" rx="99.8201" ry="25.4118"/>
<text text-anchor="middle" x="470.705" y="-338.488" font-family="Times,serif" font-size="14.00">Node4</text>
<text text-anchor="middle" x="470.705" y="-324.488" font-family="Times,serif" font-size="14.00">module = nn.gModule</text>
</a>
</g>
</g>
<!-- n4&#45;&gt;n2 -->
<g id="edge3" class="edge"><title>n4&#45;&gt;n2</title>
<path fill="none" stroke="black" d="M457.14,-310.383C450.419,-297.17 442.869,-280.304 438.705,-264.333 422.499,-202.163 419.187,-127.533 418.945,-81.0139"/>
<polygon fill="black" stroke="black" points="422.446,-80.9568 418.939,-70.9591 415.446,-80.9614 422.446,-80.9568"/>
</g>
<!-- n5 -->
<g id="node5" class="node"><title>n5</title>
<g id="a_node5"><a xlink:title="[./model/RNN.lua]:31">
<ellipse fill="none" stroke="black" cx="547.705" cy="-228.978" rx="99.8201" ry="25.4118"/>
<text text-anchor="middle" x="547.705" y="-231.778" font-family="Times,serif" font-size="14.00">Node5</text>
<text text-anchor="middle" x="547.705" y="-217.778" font-family="Times,serif" font-size="14.00">module = nn.gModule</text>
</a>
</g>
</g>
<!-- n5&#45;&gt;n2 -->
<g id="edge4" class="edge"><title>n5&#45;&gt;n2</title>
<path fill="none" stroke="black" d="M531.494,-203.709C510.605,-172.437 473.936,-117.542 448.311,-79.1791"/>
<polygon fill="black" stroke="black" points="451.163,-77.1474 442.698,-70.7761 445.342,-81.0356 451.163,-77.1474"/>
</g>
<!-- n6 -->
<g id="node6" class="node"><title>n6</title>
<g id="a_node6"><a xlink:title="[./model/RNN.lua]:31">
<ellipse fill="none" stroke="black" cx="737.705" cy="-132.167" rx="99.8201" ry="25.4118"/>
<text text-anchor="middle" x="737.705" y="-134.967" font-family="Times,serif" font-size="14.00">Node6</text>
<text text-anchor="middle" x="737.705" y="-120.967" font-family="Times,serif" font-size="14.00">module = nn.gModule</text>
</a>
</g>
</g>
<!-- n6&#45;&gt;n2 -->
<g id="edge5" class="edge"><title>n6&#45;&gt;n2</title>
<path fill="none" stroke="black" d="M674.499,-112.322C633.49,-100.095 578.928,-83.8275 530.818,-69.4834"/>
<polygon fill="black" stroke="black" points="531.556,-66.0513 520.973,-66.5481 529.556,-72.7595 531.556,-66.0513"/>
</g>
<!-- n7 -->
<g id="node7" class="node"><title>n7</title>
<g id="a_node7"><a xlink:title="[./model/RNN.lua]:30">
<ellipse fill="none" stroke="black" cx="180.705" cy="-655.82" rx="135.591" ry="35.2113"/>
<text text-anchor="middle" x="180.705" y="-665.62" font-family="Times,serif" font-size="14.00">Node7</text>
<text text-anchor="start" x="92.8601" y="-651.62" font-family="Times,serif" font-size="14.00">module = nn.gModule</text>
<text text-anchor="middle" x="180.705" y="-637.62" font-family="Times,serif" font-size="14.00">mapindex = {Node12,Node13}</text>
</a>
</g>
</g>
<!-- n7&#45;&gt;n1 -->
<g id="edge6" class="edge"><title>n7&#45;&gt;n1</title>
<path fill="none" stroke="black" d="M178.078,-620.421C175.115,-578.602 170.705,-505.867 170.705,-443.399 170.705,-443.399 170.705,-443.399 170.705,-334.688 170.705,-275.949 179.224,-208.048 185.142,-167.961"/>
<polygon fill="black" stroke="black" points="188.627,-168.318 186.658,-157.907 181.706,-167.274 188.627,-168.318"/>
</g>
<!-- n8 -->
<g id="node8" class="node"><title>n8</title>
<g id="a_node8"><a xlink:title="[./model/RNN.lua]:30">
<ellipse fill="none" stroke="black" cx="329.705" cy="-549.11" rx="130.692" ry="35.2113"/>
<text text-anchor="middle" x="329.705" y="-558.91" font-family="Times,serif" font-size="14.00">Node8</text>
<text text-anchor="start" x="245.36" y="-544.91" font-family="Times,serif" font-size="14.00">module = nn.gModule</text>
<text text-anchor="middle" x="329.705" y="-530.91" font-family="Times,serif" font-size="14.00">mapindex = {Node7,Node14}</text>
</a>
</g>
</g>
<!-- n7&#45;&gt;n8 -->
<g id="edge13" class="edge"><title>n7&#45;&gt;n8</title>
<path fill="none" stroke="black" d="M226.626,-622.549C242.136,-611.65 259.593,-599.382 275.672,-588.082"/>
<polygon fill="black" stroke="black" points="277.767,-590.888 283.936,-582.274 273.742,-585.16 277.767,-590.888"/>
</g>
<!-- n8&#45;&gt;n3 -->
<g id="edge7" class="edge"><title>n8&#45;&gt;n3</title>
<path fill="none" stroke="black" d="M328.715,-513.533C328.388,-502.131 328.025,-489.453 327.698,-478.045"/>
<polygon fill="black" stroke="black" points="331.195,-477.895 327.41,-468 324.198,-478.096 331.195,-477.895"/>
</g>
<!-- n9 -->
<g id="node9" class="node"><title>n9</title>
<g id="a_node9"><a xlink:title="[./model/RNN.lua]:30">
<ellipse fill="none" stroke="black" cx="574.705" cy="-442.399" rx="130.692" ry="35.2113"/>
<text text-anchor="middle" x="574.705" y="-452.199" font-family="Times,serif" font-size="14.00">Node9</text>
<text text-anchor="start" x="490.36" y="-438.199" font-family="Times,serif" font-size="14.00">module = nn.gModule</text>
<text text-anchor="middle" x="574.705" y="-424.199" font-family="Times,serif" font-size="14.00">mapindex = {Node8,Node15}</text>
</a>
</g>
</g>
<!-- n8&#45;&gt;n9 -->
<g id="edge15" class="edge"><title>n8&#45;&gt;n9</title>
<path fill="none" stroke="black" d="M397.952,-518.942C428.751,-505.779 465.284,-490.165 497.12,-476.558"/>
<polygon fill="black" stroke="black" points="498.581,-479.74 506.401,-472.592 495.83,-473.304 498.581,-479.74"/>
</g>
<!-- n9&#45;&gt;n4 -->
<g id="edge8" class="edge"><title>n9&#45;&gt;n4</title>
<path fill="none" stroke="black" d="M541.513,-407.98C528.692,-395.072 514.109,-380.388 501.522,-367.716"/>
<polygon fill="black" stroke="black" points="503.901,-365.144 494.371,-360.515 498.934,-370.077 503.901,-365.144"/>
</g>
<!-- n10 -->
<g id="node10" class="node"><title>n10</title>
<g id="a_node10"><a xlink:title="[./model/RNN.lua]:30">
<ellipse fill="none" stroke="black" cx="739.705" cy="-335.688" rx="130.692" ry="35.2113"/>
<text text-anchor="middle" x="739.705" y="-345.488" font-family="Times,serif" font-size="14.00">Node10</text>
<text text-anchor="start" x="655.36" y="-331.488" font-family="Times,serif" font-size="14.00">module = nn.gModule</text>
<text text-anchor="middle" x="739.705" y="-317.488" font-family="Times,serif" font-size="14.00">mapindex = {Node9,Node16}</text>
</a>
</g>
</g>
<!-- n9&#45;&gt;n10 -->
<g id="edge17" class="edge"><title>n9&#45;&gt;n10</title>
<path fill="none" stroke="black" d="M624.659,-409.698C642.427,-398.422 662.595,-385.624 681.027,-373.926"/>
<polygon fill="black" stroke="black" points="683.069,-376.775 689.637,-368.462 679.319,-370.865 683.069,-376.775"/>
</g>
<!-- n10&#45;&gt;n5 -->
<g id="edge9" class="edge"><title>n10&#45;&gt;n5</title>
<path fill="none" stroke="black" d="M682.878,-303.697C655.775,-288.916 623.644,-271.392 597.51,-257.14"/>
<polygon fill="black" stroke="black" points="598.99,-253.96 588.535,-252.245 595.638,-260.105 598.99,-253.96"/>
</g>
<!-- n11 -->
<g id="node11" class="node"><title>n11</title>
<g id="a_node11"><a xlink:title="[./model/RNN.lua]:30">
<ellipse fill="none" stroke="black" cx="800.705" cy="-228.978" rx="135.591" ry="35.2113"/>
<text text-anchor="middle" x="800.705" y="-238.778" font-family="Times,serif" font-size="14.00">Node11</text>
<text text-anchor="start" x="712.86" y="-224.778" font-family="Times,serif" font-size="14.00">module = nn.gModule</text>
<text text-anchor="middle" x="800.705" y="-210.778" font-family="Times,serif" font-size="14.00">mapindex = {Node10,Node17}</text>
</a>
</g>
</g>
<!-- n10&#45;&gt;n11 -->
<g id="edge19" class="edge"><title>n10&#45;&gt;n11</title>
<path fill="none" stroke="black" d="M759.51,-300.692C764.677,-291.822 770.314,-282.147 775.712,-272.881"/>
<polygon fill="black" stroke="black" points="778.782,-274.565 780.791,-264.162 772.733,-271.041 778.782,-274.565"/>
</g>
<!-- n11&#45;&gt;n6 -->
<g id="edge10" class="edge"><title>n11&#45;&gt;n6</title>
<path fill="none" stroke="black" d="M778.139,-194.016C772.038,-184.836 765.451,-174.922 759.399,-165.815"/>
<polygon fill="black" stroke="black" points="762.245,-163.773 753.795,-157.381 756.415,-167.647 762.245,-163.773"/>
</g>
<!-- n12 -->
<g id="node12" class="node"><title>n12</title>
<g id="a_node12"><a xlink:title="[./model/RNN.lua]:26">
<ellipse fill="none" stroke="black" cx="94.7054" cy="-762.531" rx="94.9112" ry="25.4118"/>
<text text-anchor="middle" x="94.7054" y="-765.331" font-family="Times,serif" font-size="14.00">Node12</text>
<text text-anchor="middle" x="94.7054" y="-751.331" font-family="Times,serif" font-size="14.00">module = nn.Identity</text>
</a>
</g>
</g>
<!-- n12&#45;&gt;n7 -->
<g id="edge11" class="edge"><title>n12&#45;&gt;n7</title>
<path fill="none" stroke="black" d="M114.435,-737.508C123.881,-726.008 135.47,-711.898 146.3,-698.711"/>
<polygon fill="black" stroke="black" points="149.278,-700.6 152.92,-690.651 143.868,-696.157 149.278,-700.6"/>
</g>
<!-- n13 -->
<g id="node13" class="node"><title>n13</title>
<g id="a_node13"><a xlink:title="[./model/RNN.lua]:29">
<ellipse fill="none" stroke="black" cx="301.705" cy="-762.531" rx="94.9112" ry="25.4118"/>
<text text-anchor="middle" x="301.705" y="-765.331" font-family="Times,serif" font-size="14.00">Node13</text>
<text text-anchor="middle" x="301.705" y="-751.331" font-family="Times,serif" font-size="14.00">module = nn.Identity</text>
</a>
</g>
</g>
<!-- n13&#45;&gt;n7 -->
<g id="edge12" class="edge"><title>n13&#45;&gt;n7</title>
<path fill="none" stroke="black" d="M274.551,-738.032C260.419,-725.803 242.758,-710.519 226.581,-696.52"/>
<polygon fill="black" stroke="black" points="228.632,-693.667 218.78,-689.77 224.052,-698.96 228.632,-693.667"/>
</g>
<!-- n14 -->
<g id="node14" class="node"><title>n14</title>
<g id="a_node14"><a xlink:title="[./model/RNN.lua]:29">
<ellipse fill="none" stroke="black" cx="438.705" cy="-655.82" rx="94.9112" ry="25.4118"/>
<text text-anchor="middle" x="438.705" y="-658.62" font-family="Times,serif" font-size="14.00">Node14</text>
<text text-anchor="middle" x="438.705" y="-644.62" font-family="Times,serif" font-size="14.00">module = nn.Identity</text>
</a>
</g>
</g>
<!-- n14&#45;&gt;n8 -->
<g id="edge14" class="edge"><title>n14&#45;&gt;n8</title>
<path fill="none" stroke="black" d="M413.972,-631.06C401.455,-619.036 385.918,-604.11 371.606,-590.362"/>
<polygon fill="black" stroke="black" points="373.893,-587.705 364.257,-583.302 369.044,-592.753 373.893,-587.705"/>
</g>
<!-- n15 -->
<g id="node15" class="node"><title>n15</title>
<g id="a_node15"><a xlink:title="[./model/RNN.lua]:29">
<ellipse fill="none" stroke="black" cx="572.705" cy="-549.11" rx="94.9112" ry="25.4118"/>
<text text-anchor="middle" x="572.705" y="-551.91" font-family="Times,serif" font-size="14.00">Node15</text>
<text text-anchor="middle" x="572.705" y="-537.91" font-family="Times,serif" font-size="14.00">module = nn.Identity</text>
</a>
</g>
</g>
<!-- n15&#45;&gt;n9 -->
<g id="edge16" class="edge"><title>n15&#45;&gt;n9</title>
<path fill="none" stroke="black" d="M573.174,-523.56C573.376,-512.981 573.619,-500.27 573.851,-488.118"/>
<polygon fill="black" stroke="black" points="577.351,-488.168 574.043,-478.103 570.352,-488.034 577.351,-488.168"/>
</g>
<!-- n16 -->
<g id="node16" class="node"><title>n16</title>
<g id="a_node16"><a xlink:title="[./model/RNN.lua]:29">
<ellipse fill="none" stroke="black" cx="779.705" cy="-549.11" rx="94.9112" ry="25.4118"/>
<text text-anchor="middle" x="779.705" y="-551.91" font-family="Times,serif" font-size="14.00">Node16</text>
<text text-anchor="middle" x="779.705" y="-537.91" font-family="Times,serif" font-size="14.00">module = nn.Identity</text>
</a>
</g>
</g>
<!-- n16&#45;&gt;n10 -->
<g id="edge18" class="edge"><title>n16&#45;&gt;n10</title>
<path fill="none" stroke="black" d="M775.039,-523.443C768.456,-488.653 756.336,-424.593 748.149,-381.32"/>
<polygon fill="black" stroke="black" points="751.559,-380.514 746.261,-371.339 744.681,-381.815 751.559,-380.514"/>
</g>
<!-- n17 -->
<g id="node17" class="node"><title>n17</title>
<g id="a_node17"><a xlink:title="[./model/RNN.lua]:29">
<ellipse fill="none" stroke="black" cx="901.705" cy="-655.82" rx="94.9112" ry="25.4118"/>
<text text-anchor="middle" x="901.705" y="-658.62" font-family="Times,serif" font-size="14.00">Node17</text>
<text text-anchor="middle" x="901.705" y="-644.62" font-family="Times,serif" font-size="14.00">module = nn.Identity</text>
</a>
</g>
</g>
<!-- n17&#45;&gt;n11 -->
<g id="edge20" class="edge"><title>n17&#45;&gt;n11</title>
<path fill="none" stroke="black" d="M906.305,-630.004C916.204,-569.845 934.444,-412.902 879.705,-300.333 874.129,-288.864 865.765,-278.441 856.537,-269.34"/>
<polygon fill="black" stroke="black" points="858.696,-266.569 848.987,-262.33 853.933,-271.699 858.696,-266.569"/>
</g>
<!-- n18 -->
<g id="node18" class="node"><title>n18</title>
<g id="a_node18"><a xlink:title="[[C]]:&#45;1&#45;1">
<ellipse fill="none" stroke="black" cx="99.7054" cy="-869.242" rx="71.1496" ry="35.2113"/>
<text text-anchor="middle" x="99.7054" y="-879.042" font-family="Times,serif" font-size="14.00">Node18</text>
<text text-anchor="start" x="57.2713" y="-865.042" font-family="Times,serif" font-size="14.00">input = {}</text>
<text text-anchor="middle" x="99.7054" y="-851.042" font-family="Times,serif" font-size="14.00">selectindex = 1</text>
</a>
</g>
</g>
<!-- n18&#45;&gt;n12 -->
<g id="edge21" class="edge"><title>n18&#45;&gt;n12</title>
<path fill="none" stroke="black" d="M98.0543,-833.665C97.5099,-822.263 96.9044,-809.585 96.3597,-798.177"/>
<polygon fill="black" stroke="black" points="99.8531,-797.953 95.88,-788.132 92.8611,-798.287 99.8531,-797.953"/>
</g>
<!-- n19 -->
<g id="node19" class="node"><title>n19</title>
<g id="a_node19"><a xlink:title="[[C]]:&#45;1&#45;2">
<ellipse fill="none" stroke="black" cx="283.705" cy="-869.242" rx="71.1496" ry="35.2113"/>
<text text-anchor="middle" x="283.705" y="-879.042" font-family="Times,serif" font-size="14.00">Node19</text>
<text text-anchor="start" x="241.271" y="-865.042" font-family="Times,serif" font-size="14.00">input = {}</text>
<text text-anchor="middle" x="283.705" y="-851.042" font-family="Times,serif" font-size="14.00">selectindex = 2</text>
</a>
</g>
</g>
<!-- n19&#45;&gt;n13 -->
<g id="edge22" class="edge"><title>n19&#45;&gt;n13</title>
<path fill="none" stroke="black" d="M289.599,-833.956C291.562,-822.539 293.749,-809.816 295.718,-798.359"/>
<polygon fill="black" stroke="black" points="299.208,-798.716 297.453,-788.267 292.309,-797.53 299.208,-798.716"/>
</g>
<!-- n20 -->
<g id="node20" class="node"><title>n20</title>
<g id="a_node20"><a xlink:title="[[C]]:&#45;1&#45;3">
<ellipse fill="none" stroke="black" cx="444.705" cy="-869.242" rx="71.1496" ry="35.2113"/>
<text text-anchor="middle" x="444.705" y="-879.042" font-family="Times,serif" font-size="14.00">Node20</text>
<text text-anchor="start" x="402.271" y="-865.042" font-family="Times,serif" font-size="14.00">input = {}</text>
<text text-anchor="middle" x="444.705" y="-851.042" font-family="Times,serif" font-size="14.00">selectindex = 3</text>
</a>
</g>
</g>
<!-- n20&#45;&gt;n14 -->
<g id="edge23" class="edge"><title>n20&#45;&gt;n14</title>
<path fill="none" stroke="black" d="M443.728,-833.803C442.615,-794.574 440.806,-730.835 439.69,-691.504"/>
<polygon fill="black" stroke="black" points="443.184,-691.236 439.401,-681.34 436.186,-691.435 443.184,-691.236"/>
</g>
<!-- n21 -->
<g id="node21" class="node"><title>n21</title>
<g id="a_node21"><a xlink:title="[[C]]:&#45;1&#45;4">
<ellipse fill="none" stroke="black" cx="605.705" cy="-869.242" rx="71.1496" ry="35.2113"/>
<text text-anchor="middle" x="605.705" y="-879.042" font-family="Times,serif" font-size="14.00">Node21</text>
<text text-anchor="start" x="563.271" y="-865.042" font-family="Times,serif" font-size="14.00">input = {}</text>
<text text-anchor="middle" x="605.705" y="-851.042" font-family="Times,serif" font-size="14.00">selectindex = 4</text>
</a>
</g>
</g>
<!-- n21&#45;&gt;n15 -->
<g id="edge24" class="edge"><title>n21&#45;&gt;n15</title>
<path fill="none" stroke="black" d="M602.142,-833.894C595.809,-772.838 582.661,-646.082 576.303,-584.789"/>
<polygon fill="black" stroke="black" points="579.783,-584.42 575.27,-574.834 572.821,-585.142 579.783,-584.42"/>
</g>
<!-- n22 -->
<g id="node22" class="node"><title>n22</title>
<g id="a_node22"><a xlink:title="[[C]]:&#45;1&#45;5">
<ellipse fill="none" stroke="black" cx="770.705" cy="-869.242" rx="71.1496" ry="35.2113"/>
<text text-anchor="middle" x="770.705" y="-879.042" font-family="Times,serif" font-size="14.00">Node22</text>
<text text-anchor="start" x="728.271" y="-865.042" font-family="Times,serif" font-size="14.00">input = {}</text>
<text text-anchor="middle" x="770.705" y="-851.042" font-family="Times,serif" font-size="14.00">selectindex = 5</text>
</a>
</g>
</g>
<!-- n22&#45;&gt;n16 -->
<g id="edge25" class="edge"><title>n22&#45;&gt;n16</title>
<path fill="none" stroke="black" d="M771.686,-833.59C773.413,-772.519 776.981,-646.396 778.716,-585.091"/>
<polygon fill="black" stroke="black" points="782.223,-584.872 779.008,-574.777 775.226,-584.674 782.223,-584.872"/>
</g>
<!-- n23 -->
<g id="node23" class="node"><title>n23</title>
<g id="a_node23"><a xlink:title="[[C]]:&#45;1&#45;6">
<ellipse fill="none" stroke="black" cx="881.705" cy="-762.531" rx="71.1496" ry="35.2113"/>
<text text-anchor="middle" x="881.705" y="-772.331" font-family="Times,serif" font-size="14.00">Node23</text>
<text text-anchor="start" x="839.271" y="-758.331" font-family="Times,serif" font-size="14.00">input = {}</text>
<text text-anchor="middle" x="881.705" y="-744.331" font-family="Times,serif" font-size="14.00">selectindex = 6</text>
</a>
</g>
</g>
<!-- n23&#45;&gt;n17 -->
<g id="edge26" class="edge"><title>n23&#45;&gt;n17</title>
<path fill="none" stroke="black" d="M888.254,-727.245C890.435,-715.829 892.865,-703.106 895.053,-691.649"/>
<polygon fill="black" stroke="black" points="898.542,-692.036 896.981,-681.557 891.667,-690.722 898.542,-692.036"/>
</g>
<!-- n24 -->
<g id="node24" class="node"><title>n24</title>
<g id="a_node24"><a xlink:title="[[C]]:&#45;1&#45;mnode">
<ellipse fill="none" stroke="black" cx="524.705" cy="-966.053" rx="81.6087" ry="25.4118"/>
<text text-anchor="middle" x="524.705" y="-968.853" font-family="Times,serif" font-size="14.00">Node24</text>
<text text-anchor="middle" x="524.705" y="-954.853" font-family="Times,serif" font-size="14.00">nSplitOutputs = 6</text>
</a>
</g>
</g>
<!-- n24&#45;&gt;n18 -->
<g id="edge27" class="edge"><title>n24&#45;&gt;n18</title>
<path fill="none" stroke="black" d="M452.069,-954.202C386.609,-943.754 287.991,-926.353 203.705,-904.597 191.574,-901.466 178.799,-897.671 166.514,-893.761"/>
<polygon fill="black" stroke="black" points="167.381,-890.363 156.789,-890.611 165.224,-897.022 167.381,-890.363"/>
</g>
<!-- n24&#45;&gt;n19 -->
<g id="edge28" class="edge"><title>n24&#45;&gt;n19</title>
<path fill="none" stroke="black" d="M473.343,-946.239C441.864,-934.561 400.813,-919.069 364.705,-904.597 358.75,-902.21 352.569,-899.682 346.396,-897.123"/>
<polygon fill="black" stroke="black" points="347.313,-893.713 336.736,-893.092 344.617,-900.173 347.313,-893.713"/>
</g>
<!-- n24&#45;&gt;n20 -->
<g id="edge29" class="edge"><title>n24&#45;&gt;n20</title>
<path fill="none" stroke="black" d="M504.518,-941.128C496.473,-931.593 486.997,-920.363 477.988,-909.687"/>
<polygon fill="black" stroke="black" points="480.663,-907.429 471.539,-902.043 475.313,-911.943 480.663,-907.429"/>
</g>
<!-- n24&#45;&gt;n21 -->
<g id="edge30" class="edge"><title>n24&#45;&gt;n21</title>
<path fill="none" stroke="black" d="M545.145,-941.128C553.291,-931.593 562.886,-920.363 572.006,-909.687"/>
<polygon fill="black" stroke="black" points="574.702,-911.92 578.536,-902.043 569.38,-907.373 574.702,-911.92"/>
</g>
<!-- n24&#45;&gt;n22 -->
<g id="edge31" class="edge"><title>n24&#45;&gt;n22</title>
<path fill="none" stroke="black" d="M575.948,-946.182C607.643,-934.417 649.124,-918.856 685.705,-904.597 692.536,-901.935 699.661,-899.118 706.753,-896.289"/>
<polygon fill="black" stroke="black" points="708.39,-899.403 716.372,-892.436 705.787,-892.905 708.39,-899.403"/>
</g>
<!-- n24&#45;&gt;n23 -->
<g id="edge32" class="edge"><title>n24&#45;&gt;n23</title>
<path fill="none" stroke="black" d="M604.521,-960.209C689.49,-953.376 816.37,-937.819 850.705,-904.597 876.205,-879.924 882.986,-839.427 883.951,-808.138"/>
<polygon fill="black" stroke="black" points="887.454,-807.957 884.074,-797.916 880.454,-807.873 887.454,-807.957"/>
</g>
<!-- n25 -->
<g id="node25" class="node"><title>n25</title>
<g id="a_node25"><a xlink:title="[[C]]:&#45;1">
<ellipse fill="none" stroke="black" cx="524.705" cy="-1052.96" rx="51.8999" ry="25.4118"/>
<text text-anchor="middle" x="524.705" y="-1055.76" font-family="Times,serif" font-size="14.00">Node25</text>
<text text-anchor="middle" x="524.705" y="-1041.76" font-family="Times,serif" font-size="14.00">input = {}</text>
</a>
</g>
</g>
<!-- n25&#45;&gt;n24 -->
<g id="edge33" class="edge"><title>n25&#45;&gt;n24</title>
<path fill="none" stroke="black" d="M524.705,-1027.4C524.705,-1019.4 524.705,-1010.35 524.705,-1001.74"/>
<polygon fill="black" stroke="black" points="528.205,-1001.56 524.705,-991.558 521.205,-1001.56 528.205,-1001.56"/>
</g>
</g>
</svg>
